<?xml version="1.0" standalone="no"?>
<!DOCTYPE svg PUBLIC "-//W3C//DTD SVG 20010904//EN"
 "http://www.w3.org/TR/2001/REC-SVG-20010904/DTD/svg10.dtd">
<svg version="1.0" xmlns="http://www.w3.org/2000/svg"
 width="800.000000pt" height="277.000000pt" viewBox="0 0 800.000000 277.000000"
 preserveAspectRatio="xMidYMid meet">

<g transform="translate(0.000000,277.000000) scale(0.100000,-0.100000)"
fill="#000000" stroke="none">
<path d="M727 2042 l-727 -727 0 -293 0 -292 725 0 725 0 0 -365 0 -365 365 0
365 0 0 660 0 660 -725 -2 -725 -3 727 728 728 727 -365 0 -365 0 -728 -728z"/>
<path d="M2490 2410 c0 -198 3 -360 7 -360 5 0 169 161 365 357 l358 358 0
-360 0 -360 -365 -365 -365 -365 0 -362 0 -363 730 0 730 0 0 360 c0 198 -3
360 -7 360 -5 0 -169 -161 -365 -357 l-358 -358 0 360 0 360 365 365 365 365
-2 360 -3 360 -727 3 -728 2 0 -360z"/>
<path d="M4650 949 l0 -360 25 3 26 3 2 358 2 357 -27 0 -28 0 0 -361z"/>
<path d="M5400 1245 c-23 -24 -23 -26 -5 -39 14 -10 23 -11 37 -3 13 8 26 8
51 -1 49 -18 71 -15 97 13 23 24 23 26 5 39 -14 10 -23 11 -37 3 -13 -8 -26
-8 -51 1 -49 18 -71 15 -97 -13z"/>
<path d="M5058 1144 c-57 -30 -77 -120 -36 -163 11 -13 40 -32 64 -43 51 -22
58 -31 50 -63 -9 -36 -51 -43 -98 -17 l-38 20 -20 -26 c-27 -33 -23 -42 30
-70 35 -18 55 -22 88 -18 88 11 132 56 132 134 0 46 -22 72 -90 107 -57 29
-66 58 -25 77 20 9 32 8 59 -4 32 -16 33 -16 49 12 22 37 22 37 -13 55 -37 19
-117 19 -152 -1z"/>
<path d="M5774 1135 c-114 -57 -148 -209 -68 -305 49 -58 121 -78 212 -59 135
27 205 196 129 310 -51 77 -177 102 -273 54z m176 -82 c79 -71 26 -208 -81
-208 -49 0 -85 21 -104 60 -21 45 -19 76 8 116 44 65 124 80 177 32z"/>
<path d="M7705 1141 c-144 -65 -165 -261 -37 -347 78 -53 211 -36 275 35 94
104 64 275 -56 320 -44 17 -137 13 -182 -8z m172 -96 c33 -33 35 -39 31 -80
-7 -57 -31 -93 -74 -111 -77 -32 -159 20 -159 101 0 74 52 125 129 125 30 0
45 -7 73 -35z"/>
<path d="M5348 966 c-54 -102 -98 -187 -98 -190 0 -4 20 -6 45 -6 42 0 47 3
62 35 l17 36 75 -3 75 -3 8 -32 c8 -31 11 -33 53 -33 25 0 45 2 45 4 0 5 -86
324 -96 359 -4 13 -16 17 -47 17 l-42 0 -97 -184z m150 -52 c-3 -3 -24 -4 -45
-2 l-39 3 30 65 30 65 14 -62 c9 -35 13 -65 10 -69z"/>
<path d="M6300 1143 c0 -5 -9 -78 -20 -163 -28 -217 -29 -210 19 -210 43 0 51
10 51 63 0 69 7 77 67 77 68 0 110 22 129 65 28 68 10 140 -41 163 -28 13
-205 17 -205 5z m158 -75 c33 -33 -2 -88 -55 -88 -36 0 -39 8 -27 69 6 27 11
31 38 31 18 0 37 -5 44 -12z"/>
<path d="M6693 1118 c-17 -28 -172 -319 -181 -340 -2 -5 17 -8 43 -8 42 0 47
3 66 35 21 35 21 35 95 35 l73 0 7 -35 c6 -34 8 -35 50 -35 29 0 44 4 44 13 0
6 -22 91 -48 187 l-48 175 -41 3 c-37 3 -43 0 -60 -30z m58 -130 c5 -24 12
-51 15 -60 5 -15 -1 -18 -40 -18 -25 0 -46 4 -46 10 0 14 53 120 58 115 2 -2
8 -23 13 -47z"/>
<path d="M6967 1118 c-3 -18 -11 -80 -18 -138 -10 -90 -9 -110 4 -142 22 -51
65 -72 150 -72 118 0 149 40 172 224 21 173 23 162 -27 158 l-43 -3 -15 -126
c-17 -146 -30 -169 -90 -169 -24 0 -43 7 -55 20 -17 18 -17 28 -6 127 7 60 15
118 18 131 5 20 2 22 -40 22 -43 0 -45 -1 -50 -32z"/>
<path d="M7375 1118 c-3 -18 -12 -89 -20 -158 -8 -69 -17 -140 -20 -157 l-6
-33 104 0 105 0 5 33 c2 17 3 35 0 40 -2 4 -29 7 -59 7 -37 0 -54 4 -54 13 1
6 9 74 19 150 l17 137 -42 0 c-41 0 -43 -2 -49 -32z"/>
</g>
</svg>
